<svg id="Capa_1" data-name="Capa 1" xmlns="http://www.w3.org/2000/svg" viewBox="0 0 2048.47 384"><defs><style>.cls-1{fill:#4e585d;}.cls-2{fill:#4daa17;}.cls-3{fill:#f44336;}.cls-4{opacity:0.1;isolation:isolate;}</style></defs><title>chillicodes-logo</title><path class="cls-1" d="M384,10.67A10.66,10.66,0,0,0,373.33,0h-32a10.66,10.66,0,0,0-10.66,10.67c0,23.37-11.11,39.46-20,52.37-1.16,1.67-1.91,3-2.95,4.55A102.47,102.47,0,0,0,281.54,64h-8.41a102.09,102.09,0,0,0-56.84,17.22L213.69,83c-25.71,17.12-41.57,45.15-43.46,76.88C166.38,223.58,147.6,253.24,44,303.23a78.21,78.21,0,0,0-44,70.1A10.66,10.66,0,0,0,10.67,384c14.33,0,351.12-2.22,372.52-195.06.75-6.78.81-22.45.81-22.48a102.13,102.13,0,0,0-25.37-67.38C383.39,56,384,12.59,384,10.67Z"/><path class="cls-2" d="M328.19,75.17c8.31-12,20.35-29.47,23.19-53.84H361.9c-1.52,13.61-6,38.32-19.25,63.12-1.44-1.07-2.77-2.24-4.27-3.24a104.29,104.29,0,0,0-10.33-5.84A2.43,2.43,0,0,0,328.19,75.17Z"/><path class="cls-3" d="M362,186.59C344.77,341.67,81.65,360.18,22.42,362.38a56.83,56.83,0,0,1,30.83-39.94c114-55,134.13-92.6,138.27-161.33,1.5-25,13.9-47,34-60.42L228.13,99a80.82,80.82,0,0,1,45-13.63h8.41a81.14,81.14,0,0,1,81.13,81.1C362.67,166.51,362.65,180.53,362,186.59Z"/><path class="cls-4" d="M326.54,99c-1.3-.87-2.71-1.51-4.06-2.3a80.8,80.8,0,0,1,16.17,48.43c0,.09,0,14.11-.68,20.17C323.11,299.13,123.68,297.09,42.65,341.35c-7.59,4.15-18.52,12.45-20.23,21,59.23-2.19,322.35-20.7,339.56-175.78.67-6.06.69-20.08.69-20.16A80.91,80.91,0,0,0,326.54,99Z"/><path class="cls-3" d="M530.87,285.41a70.19,70.19,0,0,1-28.18-30.63q-9.81-20-9.8-47.17,0-27,9.8-46.93a70.14,70.14,0,0,1,28.18-30.63q18.38-10.67,43.13-10.66a92.64,92.64,0,0,1,30.63,5A74.44,74.44,0,0,1,629.87,139a11.87,11.87,0,0,1,4.66,9.8,11.62,11.62,0,0,1-2.45,7.48,7.34,7.34,0,0,1-5.88,3.06,12.68,12.68,0,0,1-8.09-3.19q-11.76-8.82-21.44-12.37a63.39,63.39,0,0,0-21.94-3.55q-27,0-41.41,17.39t-14.46,50q0,32.83,14.46,50.23t41.41,17.4a60,60,0,0,0,21.45-3.68q9.68-3.68,21.93-12.25,4.89-3.18,8.09-3.18a7.34,7.34,0,0,1,5.88,3.06,11.59,11.59,0,0,1,2.45,7.47,11.89,11.89,0,0,1-4.66,9.81,74.44,74.44,0,0,1-25.24,14.58,92.9,92.9,0,0,1-30.63,5Q549.25,296.07,530.87,285.41Z"/><path class="cls-3" d="M807.78,123.67a12.72,12.72,0,0,1,3.43,9.19V282.59a12.69,12.69,0,0,1-3.43,9.19,12,12,0,0,1-9.07,3.55,12.25,12.25,0,0,1-9.07-3.43q-3.43-3.42-3.43-9.31V216.67H689.66v65.92a12.65,12.65,0,0,1-3.43,9.19,12,12,0,0,1-9.07,3.55,12.21,12.21,0,0,1-9.06-3.43q-3.44-3.42-3.43-9.31V132.86a12.68,12.68,0,0,1,3.43-9.19,13.35,13.35,0,0,1,18.13,0,12.68,12.68,0,0,1,3.43,9.19v63.23h96.55V132.86a12.68,12.68,0,0,1,3.43-9.19,13.36,13.36,0,0,1,18.14,0Z"/><path class="cls-3" d="M854.83,291.9q-3.44-3.42-3.44-9.31V132.86a12.69,12.69,0,0,1,3.44-9.19,12,12,0,0,1,9.06-3.55q5.88,0,9.31,3.43t3.43,9.31V282.59q0,5.88-3.3,9.31t-9.44,3.43A12.21,12.21,0,0,1,854.83,291.9Z"/><path class="cls-3" d="M920.13,290.92a11.36,11.36,0,0,1-3.31-8.57V132.86a12.68,12.68,0,0,1,3.43-9.19,12.07,12.07,0,0,1,9.07-3.55q5.88,0,9.31,3.43t3.43,9.31V273h74.5c3.76,0,6.65.89,8.7,2.69s3.06,4.41,3.06,7.84-1,6.05-3.06,7.84-4.94,2.7-8.7,2.7H929.08Q923.44,294.11,920.13,290.92Z"/><path class="cls-3" d="M1054.17,290.92a11.35,11.35,0,0,1-3.3-8.57V132.86a12.68,12.68,0,0,1,3.43-9.19,12,12,0,0,1,9.06-3.55q5.88,0,9.32,3.43t3.43,9.31V273h74.49c3.76,0,6.66.89,8.7,2.69s3.07,4.41,3.07,7.84-1,6.05-3.07,7.84-4.94,2.7-8.7,2.7h-87.48Q1057.48,294.11,1054.17,290.92Z"/><path class="cls-3" d="M1188.34,291.9q-3.43-3.42-3.43-9.31V132.86a12.68,12.68,0,0,1,3.43-9.19,12.07,12.07,0,0,1,9.07-3.55q5.88,0,9.31,3.43t3.43,9.31V282.59q0,5.88-3.31,9.31t-9.43,3.43A12.25,12.25,0,0,1,1188.34,291.9Z"/><path class="cls-1" d="M1282.44,285.41a70.19,70.19,0,0,1-28.18-30.63q-9.81-20-9.8-47.17,0-27,9.8-46.93a70.14,70.14,0,0,1,28.18-30.63q18.38-10.67,43.13-10.66a92.64,92.64,0,0,1,30.63,5A74.44,74.44,0,0,1,1381.44,139a11.87,11.87,0,0,1,4.66,9.8,11.62,11.62,0,0,1-2.45,7.48,7.34,7.34,0,0,1-5.88,3.06,12.68,12.68,0,0,1-8.09-3.19q-11.76-8.82-21.44-12.37a63.39,63.39,0,0,0-21.94-3.55q-27,0-41.41,17.39t-14.46,50q0,32.83,14.46,50.23t41.41,17.4a60,60,0,0,0,21.45-3.68q9.68-3.68,21.93-12.25,4.89-3.18,8.09-3.18a7.34,7.34,0,0,1,5.88,3.06,11.59,11.59,0,0,1,2.45,7.47,11.89,11.89,0,0,1-4.66,9.81,74.44,74.44,0,0,1-25.24,14.58,92.9,92.9,0,0,1-30.63,5Q1300.82,296.07,1282.44,285.41Z"/><path class="cls-1" d="M1445,285.29a71.79,71.79,0,0,1-27.81-30.63q-9.81-19.86-9.8-46.81,0-27.19,9.67-47.17t27.82-30.63q18.13-10.67,42.64-10.66,24.75,0,42.88,10.66t27.82,30.63q9.68,20,9.67,46.93t-9.67,46.92a70.73,70.73,0,0,1-27.82,30.76q-18.14,10.79-42.88,10.78Q1463,296.07,1445,285.29Zm83-27.45q14.46-17.64,14.46-50.23t-14.34-50.12Q1513.78,140,1487.55,140q-25.74,0-40.07,17.52t-14.33,50.12q0,32.58,14.33,50.23t40.07,17.65Q1513.52,275.49,1528,257.84Z"/><path class="cls-1" d="M1605.54,290.8q-3.32-3.3-3.31-8.94V133.6q0-5.64,3.31-8.94t9.19-3.31h48q41.91,0,64.94,22.54t23,63.72q0,41.16-23,63.83t-64.94,22.67h-48Q1608.85,294.11,1605.54,290.8ZM1661.29,273q63.7,0,63.71-65.43,0-65.19-63.71-65.19h-33.82V273Z"/><path class="cls-1" d="M1788.35,290.8q-3.31-3.3-3.31-8.94V133.6q0-5.64,3.31-8.94t9.19-3.31h90.18q5.63,0,8.7,2.69a9.6,9.6,0,0,1,3.06,7.6q0,4.91-3.06,7.47t-8.7,2.58h-77.93v54.4h73q5.64,0,8.7,2.69a10.94,10.94,0,0,1,0,15.2c-2,1.8-4.94,2.69-8.7,2.69h-73v57.1h77.93q11.76,0,11.76,10.05a9.56,9.56,0,0,1-3.06,7.59q-3.08,2.7-8.7,2.7h-90.18Q1791.66,294.11,1788.35,290.8Z"/><path class="cls-1" d="M1947.63,290.92q-16.79-5.15-26.83-14.21a12.52,12.52,0,0,1-4.66-10,11.59,11.59,0,0,1,2.45-7.47,7.31,7.31,0,0,1,5.88-3.06c2.29,0,5.06,1.06,8.33,3.18q21.81,16.17,49.75,16.18,19.6,0,30.14-7.36t10.54-21.07q0-10.78-9.8-16.17t-31.37-10.3q-20.58-4.41-33.82-10t-20.7-15.32q-7.49-9.67-7.48-24.63a45.05,45.05,0,0,1,8.21-26.59q8.2-11.62,22.91-18.13t33.58-6.49a100.92,100.92,0,0,1,32.1,4.9,67.46,67.46,0,0,1,25,14.46,12.74,12.74,0,0,1,4.9,10,11.32,11.32,0,0,1-2.57,7.35,7.55,7.55,0,0,1-6,3.19c-2.13,0-4.82-1.06-8.09-3.19q-11.28-8.56-21.2-12.37T1985,140q-18.87,0-29.41,7.72t-10.53,21.44q0,11.76,9.31,17.77t29.9,10.9q21.56,4.9,34.92,10.17t21.31,14.46q8,9.19,8,23.65a43.55,43.55,0,0,1-8.21,26.1q-8.21,11.38-23,17.64T1983,296.07A120.15,120.15,0,0,1,1947.63,290.92Z"/></svg>